<svg width="24" height="24" viewBox="0 0 24 24" fill="none" xmlns="http://www.w3.org/2000/svg">
<g id="vhub">
<g id="Group 1000003565">
<circle id="Ellipse 637" cx="12" cy="12" r="9.25" stroke="#0f0" stroke-width="1.5"/>
<path id="Subtract" fill-rule="evenodd" clip-rule="evenodd" d="M12.8353 13.3154C12.7918 13.2697 12.7592 13.224 12.7266 13.1726L12.6808 13.0972L15.3179 8.75507C15.5842 8.31535 16.1386 8.18971 16.5517 8.46954C16.9702 8.74936 17.0898 9.33185 16.8235 9.76586L14.4344 13.6995C14.2665 13.766 14.0874 13.8008 13.9061 13.8008C13.5093 13.8008 13.118 13.6238 12.8353 13.3154ZM13.9114 14.5606L13.1817 15.7621C13.1491 15.8135 13.111 15.8648 13.073 15.9048C12.7903 16.2132 12.399 16.3845 11.9968 16.3845C11.6 16.3845 11.2086 16.2075 10.926 15.8991C10.8825 15.8534 10.8499 15.8077 10.8173 15.7563L7.17547 9.76015C6.90913 9.32043 7.03415 8.74365 7.44725 8.46382C7.82053 8.21425 8.29758 8.29175 8.58533 8.61934L11.952 14.1626C11.9846 14.214 12.0172 14.2597 12.0607 14.3054C12.3434 14.6137 12.7347 14.7908 13.1315 14.7908C13.4071 14.7908 13.6775 14.7104 13.9114 14.5606Z" fill="#0f0"/>
</g>
</g>
</svg>
